<svg xmlns="http://www.w3.org/2000/svg" viewBox="0 0 77.01 77.01"><defs><style>.cls-1{fill:#fff;}</style></defs><g id="Layer_2" data-name="Layer 2"><g id="Layer_1-2" data-name="Layer 1"><path class="cls-1" d="M74,38.51A35.51,35.51,0,1,1,60.82,10.89,35.45,35.45,0,0,1,74,38.51Z"/><path d="M38.51,77a38.49,38.49,0,1,1,24.2-8.55A38.52,38.52,0,0,1,38.51,77Zm0-71a32.51,32.51,0,1,0,0,65A32.51,32.51,0,0,0,71,38.51,32.51,32.51,0,0,0,38.51,6Z"/><path class="cls-1" d="M74,38.51A35.45,35.45,0,0,1,60.82,66.12a35.5,35.5,0,0,1,0-55.23A35.45,35.45,0,0,1,74,38.51Z"/><path d="M60.82,70l-1.89-1.52a38.52,38.52,0,0,1,0-59.91L60.82,7l1.89,1.52a38.52,38.52,0,0,1,0,59.91Zm0-55.11a32.5,32.5,0,0,0,0,47.27,32.5,32.5,0,0,0,0-47.27Z"/><path class="cls-1" d="M28.23,38.51A35.46,35.46,0,0,1,15.62,65.65a35.49,35.49,0,0,1,0-54.28A35.43,35.43,0,0,1,28.23,38.51Z"/><path d="M15.62,69.57l-1.94-1.63a38.51,38.51,0,0,1,0-58.87l1.94-1.63,1.93,1.63A38.47,38.47,0,0,1,31.23,38.51,38.46,38.46,0,0,1,17.55,67.94Zm0-54.14a32.51,32.51,0,0,0,0,46.15,32.45,32.45,0,0,0,9.62-23.07A32.44,32.44,0,0,0,15.61,15.43Z"/></g></g></svg>